<?xml version="1.0" encoding="utf-8"?>
<!-- Generator: Adobe Illustrator 23.0.4, SVG Export Plug-In . SVG Version: 6.00 Build 0)  -->
<svg version="1.1" id="Layer_1" xmlns="http://www.w3.org/2000/svg" xmlns:xlink="http://www.w3.org/1999/xlink" x="0px" y="0px"
	 viewBox="0 0 170 60" style="enable-background:new 0 0 170 60;" xml:space="preserve">
<style type="text/css">
	.st0{fill:#F25022;}
	.st1{fill:#FEFEFE;}
	.st2{fill:#80BA01;}
	.st3{fill:#777777;}
	.st4{fill:#02A4EF;}
	.st5{fill:#FFB902;}
	.st6{fill-rule:evenodd;clip-rule:evenodd;fill:#FF9900;}
	.st7{stroke:#000000;}
	.st8{fill-rule:evenodd;clip-rule:evenodd;}
	.st9{fill-rule:evenodd;clip-rule:evenodd;fill:#009EDC;}
	.st10{fill:#0033A1;}
	.st11{fill-rule:evenodd;clip-rule:evenodd;fill:#006ABA;}
	.st12{fill-rule:evenodd;clip-rule:evenodd;fill:#007CBB;}
	.st13{fill:#007CBB;}
</style>
<g>
	<polygon class="st11" points="2,41.111 20.014,41.111 23.874,32.266 41.527,32.266 37.568,41.107 55.792,41.107 65.79,18.942 
		47.432,18.942 44.139,26.415 26.504,26.415 29.84,18.942 12.011,18.935 	"/>
	<path class="st11" d="M105.732,26.479h17.05c-0.112-3.724-3.724-6.298-10.85-7.328c-14.072-2.064-29.294-1.187-40.125,4.798
		c-8.544,4.737-9.197,11.884-0.687,15.374c7.153,2.923,22.2,3.22,32.961,1.398c6.975-1.188,12.304-3.478,15.295-6.901h-17.412
		c-2.253,1.729-5.195,2.596-8.644,2.623c-9.763,0.065-11.056-2.888-9.349-6.297c2.024-4.012,6.274-6.197,12.757-6.374
		C101.83,23.64,104.357,24.765,105.732,26.479L105.732,26.479z"/>
	<polygon class="st11" points="149.986,18.934 142.407,35.811 168,35.811 165.62,41.092 121.61,41.092 131.527,18.934 	"/>
</g>
</svg>
