<?xml version="1.0" encoding="utf-8"?>
<!-- Generator: Adobe Illustrator 16.0.0, SVG Export Plug-In . SVG Version: 6.00 Build 0)  -->
<!DOCTYPE svg PUBLIC "-//W3C//DTD SVG 1.1//EN" "http://www.w3.org/Graphics/SVG/1.1/DTD/svg11.dtd">
<svg version="1.1" id="Layer_1" xmlns="http://www.w3.org/2000/svg" xmlns:xlink="http://www.w3.org/1999/xlink" x="0px" y="0px"
	 width="557.471px" height="203.852px" viewBox="0 0 557.471 203.852" enable-background="new 0 0 557.471 203.852"
	 xml:space="preserve">
<path d="M74.743,54.804c2.355,0.006,4.026,1.682,4.024,4.034c-0.001,2.291-1.761,4-4.098,3.983
	c-2.303-0.018-3.985-1.711-3.978-4.005C70.699,56.476,72.395,54.796,74.743,54.804z"/>
<g>
	<path fill="#F25022" d="M354.032,153.118h19.95c-0.004,6.649,0,13.3-0.004,19.949c-6.649,0-13.297,0-19.946,0V153.118
		L354.032,153.118z"/>
	<path fill="#FEFEFE" d="M373.982,153.118h2.035c0,6.649-0.004,13.3,0,19.949c6.65,0,13.301,0,19.95,0c0-6.649,0-13.3,0-19.949
		h154.453v15.516c-1.422,0.005-2.849-0.009-4.271,0.013c-0.032-1.806-0.004-3.604-0.016-5.405c-1.422,0.431-2.842,0.888-4.271,1.296
		c-0.035,1.362-0.003,2.731-0.018,4.098c-2.104,0-4.207,0-6.312-0.004c0.022-1.075-0.074-2.159,0.081-3.229
		c0.126-0.842,0.614-1.688,1.437-2.015c1.038-0.425,2.196-0.143,3.181,0.293c-0.003-1.232,0.011-2.468-0.007-3.699
		c-2.072-0.568-4.451-0.458-6.289,0.74c-1.187,0.76-2.046,1.975-2.434,3.317c-0.459,1.494-0.225,3.072-0.295,4.601
		c-1.001-0.005-1.999-0.014-2.99,0.008c0.01,1.153,0.004,2.305,0,3.459c1.002,0.017,2-0.007,3.003,0.013
		c-0.012,4.852-0.004,9.702-0.004,14.552c1.438,0,2.877,0,4.313,0c0-4.854,0-9.703,0.004-14.553
		c2.104-0.008,4.207-0.004,6.312-0.004c0.009,3.094-0.005,6.184,0.004,9.276c0.02,1.438,0.267,2.979,1.219,4.117
		c0.826,1.007,2.14,1.465,3.402,1.562c1.336,0.091,2.711-0.072,3.946-0.608v8.6h-154.45c0-6.65,0-13.305,0-19.954
		c-6.649,0-13.3,0-19.95,0.004c-0.004,6.646,0,13.3,0,19.95h-2.035c0-6.65,0-13.301,0-19.95c-6.653-0.004-13.301,0-19.95-0.004
		v-2.036c6.649,0,13.297,0,19.945,0C373.982,166.418,373.979,159.768,373.982,153.118L373.982,153.118z"/>
	<path fill="#80BA01" d="M376.019,153.118h19.95c0,6.649,0,13.3,0,19.949c-6.649,0-13.3,0-19.95,0
		C376.015,166.418,376.019,159.768,376.019,153.118L376.019,153.118z"/>
	<path fill="#777777" d="M533.938,160.72c1.839-1.198,4.218-1.31,6.29-0.74c0.018,1.231,0.005,2.467,0.007,3.699
		c-0.983-0.436-2.143-0.718-3.181-0.294c-0.821,0.328-1.311,1.174-1.437,2.016c-0.155,1.069-0.059,2.153-0.081,3.229
		c2.104,0.004,4.207,0.004,6.312,0.004c0.015-1.365-0.019-2.734,0.018-4.098c1.43-0.408,2.85-0.865,4.271-1.296
		c0.011,1.801-0.018,3.601,0.016,5.405c1.422-0.021,2.849-0.008,4.271-0.013v3.502c-1.43-0.057-2.857-0.015-4.285-0.019
		c0.003,2.013,0,4.028,0,6.044c0.021,1.115-0.06,2.238,0.07,3.35c0.081,0.653,0.317,1.382,0.932,1.72
		c1.032,0.575,2.337,0.324,3.283-0.308v3.536c-1.236,0.536-2.611,0.699-3.945,0.608c-1.265-0.098-2.577-0.556-3.403-1.562
		c-0.952-1.14-1.199-2.68-1.218-4.117c-0.01-3.094,0.004-6.184-0.005-9.276c-2.105,0-4.209-0.004-6.312,0.004
		c-0.004,4.85-0.004,9.699-0.004,14.553c-1.438,0-2.877,0-4.313,0c0-4.85-0.008-9.701,0.004-14.552
		c-1.003-0.02-2.001,0.004-3.003-0.013c0.005-1.154,0.01-2.306,0-3.459c0.991-0.021,1.989-0.013,2.99-0.009
		c0.07-1.526-0.164-3.104,0.295-4.6C531.894,162.694,532.753,161.479,533.938,160.72L533.938,160.72z"/>
	<path fill="#777777" d="M441.559,160.973c0.869-0.137,1.811,0.165,2.387,0.843c0.679,0.748,0.802,1.934,0.3,2.806
		c-0.551,0.982-1.793,1.438-2.869,1.201c-1.123-0.198-2.055-1.243-2.004-2.401C439.339,162.195,440.358,161.109,441.559,160.973
		L441.559,160.973z"/>
	<path fill="#777777" d="M408.489,161.505c2.094,0,4.185,0,6.273,0c1.953,4.959,3.922,9.915,5.878,14.874
		c0.502,1.238,0.969,2.494,1.489,3.728c2.513-6.197,5.062-12.377,7.554-18.587c2.017-0.032,4.027-0.004,6.039-0.011
		c-0.004,8.387,0,16.772,0,25.16c-1.448-0.004-2.903,0.01-4.354-0.008c0.019-6.19,0-12.379,0.007-18.571
		c0.004-0.277-0.007-0.557-0.024-0.831c-0.085,0.126-0.163,0.261-0.226,0.4c-2.495,6.333-5.037,12.65-7.516,18.994
		c-1.033,0.035-2.067,0-3.102,0.018c-2.571-6.331-5.112-12.683-7.671-19.023c-0.067-0.132-0.142-0.258-0.22-0.382
		c-0.055,2.711-0.007,5.427-0.021,8.137c0,3.756-0.003,7.511,0,11.268c-1.369,0.002-2.738,0-4.107,0
		C408.489,178.281,408.489,169.895,408.489,161.505L408.489,161.505z"/>
	<path fill="#777777" d="M453.432,168.617c2.084-0.594,4.328-0.567,6.41,0.017c0.428,0.121,0.846,0.29,1.229,0.517
		c-0.021,1.374,0,2.751-0.013,4.123c-1.394-1.062-3.154-1.732-4.924-1.511c-1.404,0.128-2.745,0.854-3.586,1.99
		c-1.08,1.404-1.327,3.271-1.143,4.994c0.141,1.346,0.692,2.693,1.742,3.586c1.092,0.963,2.616,1.312,4.039,1.201
		c1.407-0.164,2.73-0.756,3.87-1.589c0.013,1.303-0.007,2.604,0.009,3.906c-1.767,1.049-3.879,1.321-5.898,1.222
		c-2.062-0.109-4.122-0.889-5.618-2.344c-1.624-1.566-2.508-3.798-2.613-6.036c-0.102-2.325,0.371-4.753,1.71-6.694
		C449.768,170.344,451.52,169.169,453.432,168.617L453.432,168.617z"/>
	<path fill="#777777" d="M482.665,168.306c2.071-0.265,4.254-0.145,6.177,0.728c1.667,0.755,3.019,2.147,3.771,3.812
		c0.798,1.772,0.993,3.763,0.858,5.688c-0.136,1.878-0.724,3.758-1.899,5.252c-1.199,1.581-3.012,2.658-4.952,3.057
		c-1.659,0.347-3.391,0.343-5.05-0.007c-1.984-0.424-3.823-1.573-4.989-3.252c-1.362-1.94-1.754-4.408-1.577-6.732
		c0.117-1.974,0.731-3.961,1.991-5.512C478.374,169.604,480.492,168.582,482.665,168.306L482.665,168.306z"/>
	<path fill="#777777" d="M500.564,168.341c1.994-0.349,4.085-0.091,5.973,0.625c0.004,1.32,0,2.646,0,3.966
		c-1.316-0.908-2.929-1.395-4.532-1.339c-0.806,0.031-1.69,0.375-2.059,1.141c-0.293,0.759-0.091,1.752,0.626,2.206
		c1.221,0.817,2.682,1.164,3.949,1.897c0.997,0.562,1.966,1.296,2.471,2.353c0.953,1.979,0.547,4.596-1.121,6.07
		c-1.597,1.492-3.891,1.902-6.005,1.824c-1.501-0.095-3.008-0.392-4.384-1.006c0.002-1.39-0.012-2.782,0.002-4.172
		c1.162,0.845,2.5,1.447,3.918,1.69c0.984,0.159,2.059,0.164,2.978-0.274c0.878-0.435,1.037-1.688,0.514-2.45
		c-0.485-0.59-1.205-0.915-1.884-1.235c-1.271-0.567-2.608-1.049-3.725-1.905c-0.783-0.611-1.376-1.473-1.609-2.446
		c-0.346-1.433-0.239-3.05,0.599-4.306C497.226,169.521,498.877,168.646,500.564,168.341L500.564,168.341z"/>
	<path fill="#777777" d="M517.055,168.3c2.153-0.266,4.441-0.119,6.407,0.87c1.711,0.859,3.042,2.404,3.706,4.195
		c0.52,1.369,0.7,2.849,0.67,4.306c0.004,2.178-0.584,4.415-1.95,6.146c-1.282,1.671-3.236,2.757-5.307,3.1
		c-2.021,0.329-4.157,0.243-6.078-0.512c-1.945-0.767-3.563-2.329-4.384-4.254c-0.854-1.962-0.941-4.169-0.678-6.264
		c0.277-2.099,1.229-4.146,2.846-5.539C513.614,169.182,515.319,168.521,517.055,168.3L517.055,168.3z"/>
	<path fill="#777777" d="M470.72,168.91c1.19-0.714,2.705-0.772,4.004-0.339c-0.004,1.438,0,2.88-0.004,4.32
		c-0.85-0.552-1.91-0.787-2.916-0.688c-1.225,0.141-2.194,1.08-2.7,2.16c-0.541,1.14-0.646,2.432-0.611,3.681
		c0,2.877,0.002,5.752,0,8.625c-1.42,0-2.836,0-4.254,0c-0.004-6.008,0.004-12.016-0.004-18.022c1.418-0.021,2.842-0.013,4.26-0.008
		c-0.006,1.033,0,2.064-0.002,3.1C468.953,170.614,469.638,169.524,470.72,168.91L470.72,168.91z"/>
	<path fill="#777777" d="M439.763,168.638c1.43-0.005,2.861-0.018,4.291,0.011c-0.014,6.005,0,12.016-0.006,18.021
		c-1.428,0-2.855,0-4.282,0C439.759,180.661,439.766,174.649,439.763,168.638L439.763,168.638z"/>
	<path fill="#FEFEFE" d="M483.953,171.729c1.296-0.083,2.677,0.281,3.607,1.226c0.998,0.981,1.384,2.403,1.488,3.76
		c0.078,1.485,0.016,3.031-0.605,4.408c-0.412,0.924-1.168,1.707-2.122,2.082c-1.115,0.427-2.364,0.451-3.516,0.156
		c-1.172-0.312-2.164-1.154-2.704-2.231c-0.693-1.392-0.797-2.992-0.654-4.516c0.13-1.386,0.613-2.81,1.665-3.762
		C481.878,172.135,482.92,171.789,483.953,171.729L483.953,171.729z"/>
	<path fill="#FEFEFE" d="M518.221,171.733c1.217-0.085,2.521,0.198,3.455,1.021c0.865,0.718,1.344,1.789,1.563,2.87
		c0.247,1.271,0.243,2.583,0.035,3.854c-0.165,0.947-0.494,1.895-1.115,2.646c-0.624,0.756-1.561,1.218-2.521,1.358
		c-1.034,0.151-2.122,0.078-3.089-0.338c-1.041-0.441-1.849-1.343-2.271-2.379c-0.514-1.236-0.614-2.605-0.514-3.931
		c0.096-1.279,0.459-2.598,1.308-3.589C515.841,172.316,517.027,171.8,518.221,171.733L518.221,171.733z"/>
	<path fill="#FEFEFE" d="M546.137,172.117c1.428,0.004,2.855-0.038,4.285,0.019v10.787c-0.946,0.632-2.251,0.883-3.283,0.308
		c-0.613-0.338-0.851-1.065-0.932-1.719c-0.13-1.111-0.049-2.234-0.07-3.351C546.137,176.146,546.14,174.13,546.137,172.117
		L546.137,172.117z"/>
	<path fill="#02A4EF" d="M354.032,175.104c6.649,0.004,13.297,0,19.95,0.004c0,6.649,0,13.3,0,19.95h-19.95V175.104L354.032,175.104
		z"/>
	<path fill="#FFB902" d="M376.019,175.107c6.65-0.004,13.301-0.004,19.95-0.004c0,6.649,0,13.304,0,19.954h-19.95
		C376.019,188.407,376.015,181.754,376.019,175.107L376.019,175.107z"/>
</g>
<g>
	<path fill="#846C2B" d="M28.069,37.53c-2.796,1.58-5.902,2.369-9.319,2.369c-3.974,0-7.187-1.282-9.64-3.844
		c-2.453-2.563-3.679-5.954-3.679-10.174c0-4.31,1.362-7.846,4.087-10.61c2.725-2.763,6.177-4.145,10.357-4.145
		c3.029,0,5.572,0.492,7.63,1.476v3.611c-2.252-1.424-4.919-2.136-7.999-2.136c-3.119,0-5.676,1.074-7.669,3.223
		c-1.993,2.149-2.99,4.932-2.99,8.349c0,3.521,0.925,6.287,2.776,8.299c1.851,2.013,4.362,3.019,7.533,3.019
		c2.175,0,4.058-0.433,5.65-1.301v-7.804h-6.096V24.91h9.358V37.53z"/>
	<path fill="#846C2B" d="M42.416,39.899c-2.938,0-5.284-0.929-7.038-2.786c-1.754-1.857-2.631-4.32-2.631-7.387
		c0-3.34,0.913-5.947,2.738-7.825c1.825-1.876,4.291-2.814,7.397-2.814c2.964,0,5.277,0.912,6.94,2.737
		c1.663,1.825,2.495,4.355,2.495,7.591c0,3.171-0.896,5.711-2.689,7.621C47.836,38.944,45.432,39.899,42.416,39.899z M42.649,21.765
		c-2.045,0-3.663,0.696-4.854,2.087s-1.786,3.31-1.786,5.756c0,2.356,0.602,4.213,1.806,5.572c1.204,1.359,2.815,2.039,4.834,2.039
		c2.058,0,3.64-0.667,4.747-2s1.66-3.229,1.66-5.688c0-2.485-0.554-4.4-1.66-5.747S44.707,21.765,42.649,21.765z"/>
	<path fill="#846C2B" d="M60.588,39.432h-3.184V10h3.184V39.432z"/>
	<path fill="#846C2B" d="M84.002,39.432h-3.184v-3.378h-0.078c-1.476,2.562-3.753,3.844-6.834,3.844
		c-2.498,0-4.495-0.89-5.989-2.669c-1.495-1.78-2.242-4.204-2.242-7.271c0-3.287,0.828-5.921,2.485-7.901
		c1.657-1.98,3.864-2.97,6.62-2.97c2.731,0,4.718,1.074,5.96,3.223h0.078V10h3.184V39.432z M80.819,30.444v-2.932
		c0-1.605-0.531-2.964-1.592-4.077c-1.062-1.113-2.407-1.669-4.038-1.669c-1.942,0-3.469,0.712-4.582,2.135
		c-1.113,1.424-1.67,3.392-1.67,5.902c0,2.291,0.534,4.1,1.602,5.427s2.501,1.99,4.3,1.99c1.773,0,3.213-0.641,4.32-1.922
		C80.265,34.016,80.819,32.398,80.819,30.444z"/>
</g>
<g>
	<path d="M60.246,110.927h-6.199V75.219c0-2.821,0.173-6.273,0.52-10.356h-0.148c-0.594,2.401-1.126,4.12-1.596,5.16l-18.188,40.904
		h-3.044L13.44,70.32c-0.52-1.188-1.052-3.006-1.596-5.457h-0.148c0.198,2.129,0.297,5.605,0.297,10.43v35.633H5.979V57.699h8.24
		l16.332,37.118c1.262,2.846,2.079,4.974,2.45,6.384h0.223c1.063-2.919,1.917-5.097,2.561-6.533l16.666-36.969h7.795V110.927z"/>
	<path d="M74.412,63.267c-1.089,0-2.017-0.371-2.784-1.114c-0.767-0.742-1.15-1.683-1.15-2.821s0.383-2.084,1.15-2.839
		c0.767-0.755,1.695-1.132,2.784-1.132c1.114,0,2.06,0.377,2.84,1.132c0.779,0.755,1.169,1.701,1.169,2.839
		c0,1.089-0.39,2.017-1.169,2.784C76.472,62.884,75.526,63.267,74.412,63.267z M77.382,110.927h-6.087V72.918h6.087V110.927z"/>
	<path d="M113.484,109.182c-2.92,1.756-6.384,2.635-10.393,2.635c-5.419,0-9.793-1.763-13.121-5.289
		c-3.329-3.526-4.992-8.098-4.992-13.715c0-6.26,1.793-11.29,5.382-15.089c3.588-3.798,8.376-5.697,14.365-5.697
		c3.34,0,6.285,0.619,8.834,1.856v6.236c-2.821-1.979-5.84-2.97-9.057-2.97c-3.885,0-7.071,1.392-9.558,4.176
		s-3.73,6.44-3.73,10.968c0,4.454,1.169,7.968,3.507,10.542c2.338,2.574,5.475,3.86,9.41,3.86c3.315,0,6.434-1.101,9.354-3.304
		V109.182z"/>
	<path d="M140.382,79.079c-1.064-0.816-2.598-1.225-4.603-1.225c-2.598,0-4.77,1.225-6.514,3.674s-2.617,5.791-2.617,10.022v19.375
		h-6.087V72.918h6.087v7.832h0.148c0.866-2.672,2.19-4.757,3.972-6.254c1.781-1.497,3.773-2.246,5.976-2.246
		c1.583,0,2.796,0.173,3.638,0.52V79.079z"/>
	<path d="M159.745,111.817c-5.617,0-10.102-1.775-13.455-5.326c-3.354-3.551-5.029-8.259-5.029-14.124
		c0-6.384,1.744-11.37,5.233-14.958c3.489-3.587,8.203-5.382,14.142-5.382c5.666,0,10.089,1.745,13.27,5.233
		c3.179,3.489,4.77,8.327,4.77,14.513c0,6.063-1.714,10.919-5.141,14.569C170.106,109.993,165.51,111.817,159.745,111.817z
		 M160.19,77.149c-3.91,0-7.003,1.331-9.28,3.99c-2.277,2.66-3.415,6.329-3.415,11.005c0,4.504,1.15,8.055,3.452,10.653
		c2.301,2.599,5.382,3.897,9.243,3.897c3.934,0,6.959-1.274,9.075-3.823c2.116-2.548,3.173-6.174,3.173-10.875
		c0-4.751-1.058-8.413-3.173-10.987C167.15,78.436,164.125,77.149,160.19,77.149z"/>
	<path d="M183.97,109.553v-6.533c3.315,2.45,6.965,3.675,10.95,3.675c5.345,0,8.018-1.781,8.018-5.345
		c0-1.015-0.229-1.875-0.687-2.58c-0.458-0.705-1.076-1.33-1.856-1.875c-0.779-0.544-1.695-1.033-2.747-1.466
		c-1.052-0.433-2.184-0.885-3.396-1.355c-1.683-0.668-3.162-1.342-4.436-2.023c-1.275-0.68-2.339-1.448-3.192-2.301
		s-1.498-1.825-1.93-2.914c-0.433-1.089-0.649-2.363-0.649-3.823c0-1.782,0.408-3.359,1.225-4.732
		c0.817-1.374,1.905-2.524,3.267-3.452c1.36-0.928,2.914-1.627,4.658-2.097c1.745-0.47,3.545-0.705,5.401-0.705
		c3.291,0,6.236,0.569,8.834,1.708v6.161c-2.797-1.831-6.013-2.747-9.651-2.747c-1.138,0-2.166,0.13-3.081,0.39
		c-0.916,0.26-1.702,0.625-2.357,1.095c-0.656,0.47-1.164,1.033-1.522,1.689c-0.359,0.656-0.538,1.379-0.538,2.171
		c0,0.99,0.179,1.819,0.538,2.487c0.358,0.668,0.884,1.262,1.578,1.782c0.692,0.52,1.534,0.99,2.524,1.41
		c0.989,0.421,2.116,0.879,3.378,1.374c1.682,0.644,3.192,1.306,4.528,1.986c1.336,0.681,2.474,1.448,3.415,2.301
		s1.664,1.837,2.171,2.951c0.507,1.114,0.761,2.438,0.761,3.972c0,1.88-0.415,3.514-1.244,4.9c-0.829,1.386-1.937,2.536-3.322,3.452
		c-1.386,0.915-2.982,1.596-4.788,2.041c-1.807,0.445-3.7,0.668-5.679,0.668C190.23,111.817,186.84,111.062,183.97,109.553z"/>
	<path d="M232.285,111.817c-5.617,0-10.102-1.775-13.455-5.326c-3.354-3.551-5.029-8.259-5.029-14.124
		c0-6.384,1.744-11.37,5.233-14.958c3.489-3.587,8.203-5.382,14.142-5.382c5.666,0,10.089,1.745,13.27,5.233
		c3.179,3.489,4.77,8.327,4.77,14.513c0,6.063-1.714,10.919-5.141,14.569C242.646,109.993,238.05,111.817,232.285,111.817z
		 M232.73,77.149c-3.91,0-7.003,1.331-9.28,3.99c-2.277,2.66-3.415,6.329-3.415,11.005c0,4.504,1.15,8.055,3.452,10.653
		c2.301,2.599,5.382,3.897,9.243,3.897c3.934,0,6.959-1.274,9.075-3.823c2.116-2.548,3.173-6.174,3.173-10.875
		c0-4.751-1.058-8.413-3.173-10.987C239.69,78.436,236.665,77.149,232.73,77.149z"/>
	<path d="M276.22,60.001c-1.188-0.668-2.537-1.002-4.046-1.002c-4.256,0-6.384,2.685-6.384,8.054v5.865h8.908v5.197h-8.908v32.812
		h-6.05V78.115h-6.496v-5.197h6.496v-6.162c0-3.983,1.15-7.132,3.452-9.446c2.301-2.313,5.171-3.471,8.611-3.471
		c1.855,0,3.328,0.223,4.417,0.668V60.001z"/>
	<path d="M298.106,110.555c-1.436,0.792-3.328,1.188-5.68,1.188c-6.656,0-9.984-3.712-9.984-11.135V78.115h-6.532v-5.197h6.532
		v-9.279l6.088-1.967v11.247h9.576v5.197h-9.576v21.417c0,2.548,0.432,4.368,1.299,5.457c0.865,1.089,2.301,1.633,4.307,1.633
		c1.533,0,2.857-0.421,3.971-1.262V110.555z"/>
</g>
<g>
	<path d="M327.975,90.809v20.118h-6.235V57.699h14.624c5.691,0,10.103,1.386,13.232,4.157c3.131,2.771,4.695,6.681,4.695,11.729
		c0,5.048-1.738,9.181-5.215,12.397c-3.477,3.217-8.172,4.826-14.086,4.826H327.975z M327.975,63.342v21.825h6.533
		c4.306,0,7.591-0.984,9.854-2.951c2.265-1.967,3.396-4.745,3.396-8.333c0-7.028-4.157-10.542-12.472-10.542H327.975z"/>
	<path d="M387.646,110.927h-6.088v-5.938h-0.148c-2.648,4.553-6.545,6.829-11.692,6.829c-3.786,0-6.749-1.002-8.89-3.006
		c-2.141-2.005-3.21-4.665-3.21-7.981c0-7.102,4.181-11.234,12.545-12.397l11.396-1.596c0-6.458-2.611-9.688-7.832-9.688
		c-4.578,0-8.71,1.559-12.397,4.677V75.59c3.736-2.375,8.042-3.563,12.917-3.563c8.933,0,13.4,4.727,13.4,14.179V110.927z
		 M381.559,91.699l-9.168,1.262c-2.821,0.396-4.949,1.095-6.385,2.097c-1.435,1.002-2.152,2.778-2.152,5.326
		c0,1.856,0.662,3.372,1.985,4.547c1.324,1.175,3.087,1.763,5.29,1.763c3.019,0,5.512-1.058,7.479-3.174
		c1.968-2.115,2.951-4.794,2.951-8.036V91.699z"/>
	<path d="M418.328,79.079c-1.063-0.816-2.598-1.225-4.603-1.225c-2.598,0-4.77,1.225-6.514,3.674
		c-1.745,2.45-2.617,5.791-2.617,10.022v19.375h-6.087V72.918h6.087v7.832h0.148c0.866-2.672,2.19-4.757,3.972-6.254
		c1.781-1.497,3.773-2.246,5.976-2.246c1.584,0,2.797,0.173,3.638,0.52V79.079z"/>
	<path d="M444.148,110.555c-1.436,0.792-3.328,1.188-5.68,1.188c-6.656,0-9.984-3.712-9.984-11.135V78.115h-6.532v-5.197h6.532
		v-9.279l6.088-1.967v11.247h9.576v5.197h-9.576v21.417c0,2.548,0.433,4.368,1.299,5.457s2.301,1.633,4.306,1.633
		c1.534,0,2.858-0.421,3.972-1.262V110.555z"/>
	<path d="M483.219,110.927h-6.087V89.25c0-8.067-2.945-12.101-8.834-12.101c-3.044,0-5.562,1.145-7.554,3.434
		c-1.992,2.289-2.988,5.178-2.988,8.667v21.677h-6.087V72.918h6.087v6.31h0.148c2.87-4.8,7.027-7.201,12.472-7.201
		c4.157,0,7.337,1.342,9.539,4.027s3.304,6.564,3.304,11.636V110.927z"/>
	<path d="M524.628,93.444h-26.836c0.099,4.231,1.237,7.498,3.415,9.799c2.177,2.302,5.172,3.452,8.982,3.452
		c4.28,0,8.215-1.41,11.804-4.231v5.716c-3.341,2.426-7.758,3.638-13.251,3.638c-5.37,0-9.59-1.726-12.657-5.178
		c-3.069-3.452-4.603-8.308-4.603-14.569c0-5.914,1.676-10.733,5.029-14.458c3.353-3.724,7.517-5.586,12.49-5.586
		s8.821,1.609,11.543,4.825c2.722,3.217,4.083,7.684,4.083,13.399V93.444z M518.393,88.284c-0.025-3.513-0.872-6.248-2.543-8.203
		c-1.67-1.955-3.99-2.933-6.959-2.933c-2.871,0-5.309,1.027-7.312,3.081c-2.005,2.054-3.242,4.739-3.712,8.054H518.393z"/>
	<path d="M553.046,79.079c-1.063-0.816-2.598-1.225-4.603-1.225c-2.598,0-4.77,1.225-6.514,3.674
		c-1.745,2.45-2.617,5.791-2.617,10.022v19.375h-6.087V72.918h6.087v7.832h0.148c0.866-2.672,2.19-4.757,3.972-6.254
		c1.781-1.497,3.773-2.246,5.976-2.246c1.584,0,2.797,0.173,3.638,0.52V79.079z"/>
</g>
</svg>
